<svg xmlns="http://www.w3.org/2000/svg" viewBox="0 0 1200 630" fill="none">
  <defs>
    <linearGradient id="bg" x1="72" y1="40" x2="1104" y2="588" gradientUnits="userSpaceOnUse">
      <stop stop-color="#0D1830" />
      <stop offset="1" stop-color="#07111F" />
    </linearGradient>
    <linearGradient id="panel" x1="748" y1="132" x2="1044" y2="426" gradientUnits="userSpaceOnUse">
      <stop stop-color="#7AA2FF" />
      <stop offset="1" stop-color="#6D54FF" />
    </linearGradient>
  </defs>
  <rect width="1200" height="630" fill="url(#bg)" />
  <circle cx="1090" cy="104" r="180" fill="#4F7CFF" fill-opacity=".12" />
  <circle cx="172" cy="-12" r="220" fill="#5EC7FF" fill-opacity=".08" />
  <rect x="72" y="76" width="1056" height="478" rx="28" fill="#111A30" fill-opacity=".92" stroke="#89A6DF" stroke-opacity=".22" />
  <g>
    <rect x="92" y="102" width="92" height="92" rx="24" fill="url(#panel)" />
    <path d="M119 127h38" stroke="#D7E3FF" stroke-width="7" stroke-linecap="round" />
    <path d="M126 127l4-7h17l4 7" stroke="#D7E3FF" stroke-width="7" stroke-linecap="round" stroke-linejoin="round" />
    <path d="M123 135h29l-4 30.5a6 6 0 0 1-5.96 5.5h-9.08a6 6 0 0 1-5.96-5.5L123 135Z" fill="#F6FAFF" />
    <path d="M134 142v20M142 142v20" stroke="#5A6DAD" stroke-width="5" stroke-linecap="round" />
  </g>
  <text x="212" y="145" fill="#6EA8FF" font-size="28" font-family="Inter,Segoe UI,Arial,sans-serif" font-weight="700" letter-spacing="5.2">GITHUB CLI EXTENSION</text>
  <text x="92" y="250" fill="#EFF4FF" font-size="72" font-family="Inter,Segoe UI,Arial,sans-serif" font-weight="800">gh-runs-cleanup</text>
  <text x="92" y="318" fill="#B3C1E0" font-size="31" font-family="Inter,Segoe UI,Arial,sans-serif">Safely bulk-delete GitHub Actions workflow runs with dry-run previews,</text>
  <text x="92" y="360" fill="#B3C1E0" font-size="31" font-family="Inter,Segoe UI,Arial,sans-serif">explicit confirmation, filters, retry handling, and JSON output.</text>
  <g>
    <rect x="92" y="420" width="272" height="54" rx="18" fill="#182541" stroke="#89A6DF" stroke-opacity=".22" />
    <text x="120" y="454" fill="#EFF4FF" font-size="24" font-family="Inter,Segoe UI,Arial,sans-serif" font-weight="700">Dry-run first</text>
    <rect x="386" y="420" width="264" height="54" rx="18" fill="#182541" stroke="#89A6DF" stroke-opacity=".22" />
    <text x="414" y="454" fill="#EFF4FF" font-size="24" font-family="Inter,Segoe UI,Arial,sans-serif" font-weight="700">Retry-aware</text>
    <rect x="672" y="420" width="290" height="54" rx="18" fill="#182541" stroke="#89A6DF" stroke-opacity=".22" />
    <text x="700" y="454" fill="#EFF4FF" font-size="24" font-family="Inter,Segoe UI,Arial,sans-serif" font-weight="700">Machine-readable JSON</text>
  </g>
</svg>
